<?xml version="1.0" encoding="UTF-8"?>
<svg width="700pt" height="700pt" version="1.1" viewBox="0 0 700 700" xmlns="http://www.w3.org/2000/svg" xmlns:xlink="http://www.w3.org/1999/xlink">
 <defs>
  <symbol id="s" overflow="visible">
   <path d="m18.766-1.125c-0.96875 0.5-1.9805 0.875-3.0312 1.125-1.043 0.25781-2.1367 0.39062-3.2812 0.39062-3.3984 0-6.0898-0.94531-8.0781-2.8438-1.9922-1.9062-2.9844-4.4844-2.9844-7.7344 0-3.2578 0.99219-5.8359 2.9844-7.7344 1.9883-1.9062 4.6797-2.8594 8.0781-2.8594 1.1445 0 2.2383 0.13281 3.2812 0.39062 1.0508 0.25 2.0625 0.625 3.0312 1.125v4.2188c-0.98047-0.65625-1.9453-1.1406-2.8906-1.4531-0.94922-0.3125-1.9492-0.46875-3-0.46875-1.875 0-3.3516 0.60547-4.4219 1.8125-1.0742 1.1992-1.6094 2.8555-1.6094 4.9688 0 2.1055 0.53516 3.7617 1.6094 4.9688 1.0703 1.1992 2.5469 1.7969 4.4219 1.7969 1.0508 0 2.0508-0.14844 3-0.45312 0.94531-0.3125 1.9102-0.80078 2.8906-1.4688z"/>
  </symbol>
  <symbol id="e" overflow="visible">
   <path d="m13.734-11.141c-0.4375-0.19531-0.87109-0.34375-1.2969-0.4375-0.41797-0.10156-0.83984-0.15625-1.2656-0.15625-1.2617 0-2.2305 0.40625-2.9062 1.2188-0.67969 0.80469-1.0156 1.9531-1.0156 3.4531v7.0625h-4.8906v-15.312h4.8906v2.5156c0.625-1 1.3438-1.7266 2.1562-2.1875 0.82031-0.46875 1.8008-0.70312 2.9375-0.70312 0.16406 0 0.34375 0.011719 0.53125 0.03125 0.19531 0.011719 0.47656 0.039062 0.84375 0.078125z"/>
  </symbol>
  <symbol id="c" overflow="visible">
   <path d="m17.641-7.7031v1.4062h-11.453c0.125 1.1484 0.53906 2.0078 1.25 2.5781 0.70703 0.57422 1.7031 0.85938 2.9844 0.85938 1.0312 0 2.082-0.14844 3.1562-0.45312 1.082-0.3125 2.1914-0.77344 3.3281-1.3906v3.7656c-1.1562 0.4375-2.3125 0.76562-3.4688 0.98438-1.1562 0.22656-2.3125 0.34375-3.4688 0.34375-2.7734 0-4.9297-0.70312-6.4688-2.1094-1.5312-1.4062-2.2969-3.3789-2.2969-5.9219 0-2.5 0.75391-4.4609 2.2656-5.8906 1.5078-1.4375 3.582-2.1562 6.2188-2.1562 2.4062 0 4.332 0.73047 5.7812 2.1875 1.4453 1.4492 2.1719 3.3828 2.1719 5.7969zm-5.0312-1.625c0-0.92578-0.27344-1.6719-0.8125-2.2344-0.54297-0.57031-1.25-0.85938-2.125-0.85938-0.94922 0-1.7188 0.26562-2.3125 0.79688s-0.96484 1.2969-1.1094 2.2969z"/>
  </symbol>
  <symbol id="a" overflow="visible">
   <path d="m9.2188-6.8906c-1.0234 0-1.793 0.17188-2.3125 0.51562-0.51172 0.34375-0.76562 0.85547-0.76562 1.5312 0 0.625 0.20703 1.1172 0.625 1.4688 0.41406 0.34375 0.98828 0.51562 1.7188 0.51562 0.92578 0 1.7031-0.32812 2.3281-0.98438 0.63281-0.66406 0.95312-1.4922 0.95312-2.4844v-0.5625zm7.4688-1.8438v8.7344h-4.9219v-2.2656c-0.65625 0.92969-1.3984 1.6055-2.2188 2.0312-0.82422 0.41406-1.8242 0.625-3 0.625-1.5859 0-2.8711-0.45703-3.8594-1.375-0.99219-0.92578-1.4844-2.1289-1.4844-3.6094 0-1.7891 0.61328-3.1016 1.8438-3.9375 1.2383-0.84375 3.1797-1.2656 5.8281-1.2656h2.8906v-0.39062c0-0.76953-0.30859-1.332-0.92188-1.6875-0.61719-0.36328-1.5703-0.54688-2.8594-0.54688-1.0547 0-2.0312 0.10547-2.9375 0.3125-0.89844 0.21094-1.7305 0.52344-2.5 0.9375v-3.7344c1.0391-0.25 2.0859-0.44141 3.1406-0.57812 1.0625-0.13281 2.125-0.20312 3.1875-0.20312 2.7578 0 4.75 0.54688 5.9688 1.6406 1.2266 1.0859 1.8438 2.8555 1.8438 5.3125z"/>
  </symbol>
  <symbol id="b" overflow="visible">
   <path d="m7.7031-19.656v4.3438h5.0469v3.5h-5.0469v6.5c0 0.71094 0.14062 1.1875 0.42188 1.4375s0.83594 0.375 1.6719 0.375h2.5156v3.5h-4.1875c-1.9375 0-3.3125-0.39844-4.125-1.2031-0.80469-0.8125-1.2031-2.1797-1.2031-4.1094v-6.5h-2.4219v-3.5h2.4219v-4.3438z"/>
  </symbol>
  <symbol id="l" overflow="visible">
   <path d="m12.766-13.078v-8.2031h4.9219v21.281h-4.9219v-2.2188c-0.66797 0.90625-1.4062 1.5703-2.2188 1.9844s-1.7578 0.625-2.8281 0.625c-1.8867 0-3.4336-0.75-4.6406-2.25-1.2109-1.5-1.8125-3.4258-1.8125-5.7812 0-2.3633 0.60156-4.2969 1.8125-5.7969 1.207-1.5 2.7539-2.25 4.6406-2.25 1.0625 0 2 0.21484 2.8125 0.64062 0.82031 0.42969 1.5664 1.0859 2.2344 1.9688zm-3.2188 9.9219c1.0391 0 1.8359-0.37891 2.3906-1.1406 0.55078-0.76953 0.82812-1.8828 0.82812-3.3438 0-1.457-0.27734-2.5664-0.82812-3.3281-0.55469-0.76953-1.3516-1.1562-2.3906-1.1562-1.043 0-1.8398 0.38672-2.3906 1.1562-0.55469 0.76172-0.82812 1.8711-0.82812 3.3281 0 1.4609 0.27344 2.5742 0.82812 3.3438 0.55078 0.76172 1.3477 1.1406 2.3906 1.1406z"/>
  </symbol>
  <symbol id="k" overflow="visible">
   <path d="m10.5-3.1562c1.0508 0 1.8516-0.37891 2.4062-1.1406 0.55078-0.76953 0.82812-1.8828 0.82812-3.3438 0-1.457-0.27734-2.5664-0.82812-3.3281-0.55469-0.76953-1.3555-1.1562-2.4062-1.1562-1.0547 0-1.8594 0.38672-2.4219 1.1562-0.55469 0.77344-0.82812 1.8828-0.82812 3.3281 0 1.4492 0.27344 2.5586 0.82812 3.3281 0.5625 0.77344 1.3672 1.1562 2.4219 1.1562zm-3.25-9.9219c0.67578-0.88281 1.4219-1.5391 2.2344-1.9688 0.82031-0.42578 1.7656-0.64062 2.8281-0.64062 1.8945 0 3.4453 0.75 4.6562 2.25 1.207 1.5 1.8125 3.4336 1.8125 5.7969 0 2.3555-0.60547 4.2812-1.8125 5.7812-1.2109 1.5-2.7617 2.25-4.6562 2.25-1.0625 0-2.0078-0.21094-2.8281-0.625-0.8125-0.42578-1.5586-1.0859-2.2344-1.9844v2.2188h-4.8906v-21.281h4.8906z"/>
  </symbol>
  <symbol id="j" overflow="visible">
   <path d="m0.34375-15.312h4.8906l4.125 10.391 3.5-10.391h4.8906l-6.4375 16.766c-0.64844 1.6953-1.4023 2.8828-2.2656 3.5625-0.86719 0.6875-2 1.0312-3.4062 1.0312h-2.8438v-3.2188h1.5312c0.83203 0 1.4375-0.13672 1.8125-0.40625 0.38281-0.26172 0.67969-0.73047 0.89062-1.4062l0.14062-0.42188z"/>
  </symbol>
  <symbol id="g" overflow="visible">
   <path d="m2.3594-15.312h4.8906v15.031c0 2.0508-0.49609 3.6172-1.4844 4.7031-0.98047 1.082-2.4062 1.625-4.2812 1.625h-2.4219v-3.2188h0.85938c0.92578 0 1.5625-0.21094 1.9062-0.625 0.35156-0.41797 0.53125-1.2461 0.53125-2.4844zm0-5.9688h4.8906v4h-4.8906z"/>
  </symbol>
  <symbol id="d" overflow="visible">
   <path d="m9.6406-12.188c-1.0859 0-1.9141 0.39062-2.4844 1.1719-0.57422 0.78125-0.85938 1.9062-0.85938 3.375s0.28516 2.5938 0.85938 3.375c0.57031 0.77344 1.3984 1.1562 2.4844 1.1562 1.0625 0 1.875-0.38281 2.4375-1.1562 0.57031-0.78125 0.85938-1.9062 0.85938-3.375s-0.28906-2.5938-0.85938-3.375c-0.5625-0.78125-1.375-1.1719-2.4375-1.1719zm0-3.5c2.6328 0 4.6914 0.71484 6.1719 2.1406 1.4766 1.418 2.2188 3.3867 2.2188 5.9062 0 2.5117-0.74219 4.4805-2.2188 5.9062-1.4805 1.418-3.5391 2.125-6.1719 2.125-2.6484 0-4.7148-0.70703-6.2031-2.125-1.4922-1.4258-2.2344-3.3945-2.2344-5.9062 0-2.5195 0.74219-4.4883 2.2344-5.9062 1.4883-1.4258 3.5547-2.1406 6.2031-2.1406z"/>
  </symbol>
  <symbol id="f" overflow="visible">
   <path d="m17.75-9.3281v9.3281h-4.9219v-7.1406c0-1.3203-0.03125-2.2344-0.09375-2.7344s-0.16797-0.86719-0.3125-1.1094c-0.1875-0.3125-0.44922-0.55469-0.78125-0.73438-0.32422-0.17578-0.69531-0.26562-1.1094-0.26562-1.0234 0-1.8242 0.39844-2.4062 1.1875-0.58594 0.78125-0.875 1.8711-0.875 3.2656v7.5312h-4.8906v-15.312h4.8906v2.2344c0.73828-0.88281 1.5195-1.5391 2.3438-1.9688 0.83203-0.42578 1.75-0.64062 2.75-0.64062 1.7695 0 3.1133 0.54688 4.0312 1.6406 0.91406 1.0859 1.375 2.6562 1.375 4.7188z"/>
  </symbol>
  <symbol id="i" overflow="visible">
   <path d="m17.75-9.3281v9.3281h-4.9219v-7.1094c0-1.3438-0.03125-2.2656-0.09375-2.7656s-0.16797-0.86719-0.3125-1.1094c-0.1875-0.3125-0.44922-0.55469-0.78125-0.73438-0.32422-0.17578-0.69531-0.26562-1.1094-0.26562-1.0234 0-1.8242 0.39844-2.4062 1.1875-0.58594 0.78125-0.875 1.8711-0.875 3.2656v7.5312h-4.8906v-21.281h4.8906v8.2031c0.73828-0.88281 1.5195-1.5391 2.3438-1.9688 0.83203-0.42578 1.75-0.64062 2.75-0.64062 1.7695 0 3.1133 0.54688 4.0312 1.6406 0.91406 1.0859 1.375 2.6562 1.375 4.7188z"/>
  </symbol>
  <symbol id="h" overflow="visible">
   <path d="m12.766-2.5938c-0.66797 0.88672-1.4062 1.543-2.2188 1.9688-0.8125 0.41797-1.7578 0.625-2.8281 0.625-1.8672 0-3.4062-0.73438-4.625-2.2031-1.2188-1.4766-1.8281-3.3516-1.8281-5.625 0-2.2891 0.60938-4.1641 1.8281-5.625 1.2188-1.4688 2.7578-2.2031 4.625-2.2031 1.0703 0 2.0156 0.21484 2.8281 0.64062 0.8125 0.41797 1.5508 1.0742 2.2188 1.9688v-2.2656h4.9219v13.766c0 2.457-0.77734 4.3359-2.3281 5.6406-1.5547 1.3008-3.8086 1.9531-6.7656 1.9531-0.94922 0-1.8711-0.074219-2.7656-0.21875-0.89844-0.14844-1.7969-0.37109-2.7031-0.67188v-3.8125c0.86328 0.48828 1.7031 0.85156 2.5156 1.0938 0.82031 0.23828 1.6484 0.35938 2.4844 0.35938 1.6016 0 2.7734-0.35156 3.5156-1.0469 0.75-0.69922 1.125-1.7969 1.125-3.2969zm-3.2188-9.5312c-1.0117 0-1.8047 0.375-2.375 1.125-0.5625 0.74219-0.84375 1.7969-0.84375 3.1719 0 1.3984 0.26953 2.4609 0.8125 3.1875 0.55078 0.71875 1.3516 1.0781 2.4062 1.0781 1.0195 0 1.8125-0.36719 2.375-1.1094 0.5625-0.75 0.84375-1.8008 0.84375-3.1562 0-1.375-0.28125-2.4297-0.84375-3.1719-0.5625-0.75-1.3555-1.125-2.375-1.125z"/>
  </symbol>
  <symbol id="r" overflow="visible">
   <path d="m12.422-21.281v3.2188h-2.7031c-0.6875 0-1.1719 0.125-1.4531 0.375-0.27344 0.25-0.40625 0.6875-0.40625 1.3125v1.0625h4.1875v3.5h-4.1875v11.812h-4.8906v-11.812h-2.4375v-3.5h2.4375v-1.0625c0-1.6641 0.46094-2.8984 1.3906-3.7031 0.92578-0.80078 2.3672-1.2031 4.3281-1.2031z"/>
  </symbol>
  <symbol id="q" overflow="visible">
   <path d="m16.547-12.766c0.61328-0.94531 1.3477-1.6719 2.2031-2.1719 0.85156-0.5 1.7891-0.75 2.8125-0.75 1.7578 0 3.0977 0.54688 4.0156 1.6406 0.92578 1.0859 1.3906 2.6562 1.3906 4.7188v9.3281h-4.9219v-7.9844-0.35938c0.007813-0.13281 0.015625-0.32031 0.015625-0.5625 0-1.082-0.16406-1.8633-0.48438-2.3438-0.3125-0.48828-0.82422-0.73438-1.5312-0.73438-0.92969 0-1.6484 0.38672-2.1562 1.1562-0.51172 0.76172-0.77344 1.8672-0.78125 3.3125v7.5156h-4.9219v-7.9844c0-1.6953-0.14844-2.7852-0.4375-3.2656-0.29297-0.48828-0.8125-0.73438-1.5625-0.73438-0.9375 0-1.6641 0.38672-2.1719 1.1562-0.51172 0.76172-0.76562 1.8594-0.76562 3.2969v7.5312h-4.9219v-15.312h4.9219v2.2344c0.60156-0.86328 1.2891-1.5156 2.0625-1.9531 0.78125-0.4375 1.6406-0.65625 2.5781-0.65625 1.0625 0 2 0.25781 2.8125 0.76562 0.8125 0.51172 1.4258 1.2305 1.8438 2.1562z"/>
  </symbol>
  <symbol id="p" overflow="visible">
   <path d="m2.5781-20.406h5.875l7.4219 14v-14h4.9844v20.406h-5.875l-7.4219-14v14h-4.9844z"/>
  </symbol>
  <symbol id="o" overflow="visible">
   <path d="m2.1875-5.9688v-9.3438h4.9219v1.5312c0 0.83594-0.007813 1.875-0.015625 3.125-0.011719 1.25-0.015625 2.0859-0.015625 2.5 0 1.2422 0.03125 2.1328 0.09375 2.6719 0.070313 0.54297 0.17969 0.93359 0.32812 1.1719 0.20703 0.32422 0.47266 0.57422 0.79688 0.75 0.32031 0.16797 0.69141 0.25 1.1094 0.25 1.0195 0 1.8203-0.39062 2.4062-1.1719 0.58203-0.78125 0.875-1.8672 0.875-3.2656v-7.5625h4.8906v15.312h-4.8906v-2.2188c-0.74219 0.89844-1.5234 1.5586-2.3438 1.9844-0.82422 0.41406-1.7344 0.625-2.7344 0.625-1.7617 0-3.1055-0.53906-4.0312-1.625-0.92969-1.082-1.3906-2.6602-1.3906-4.7344z"/>
  </symbol>
  <symbol id="n" overflow="visible">
   <path d="m2.5781-20.406h8.7344c2.5938 0 4.582 0.57812 5.9688 1.7344 1.3945 1.1484 2.0938 2.7891 2.0938 4.9219 0 2.1367-0.69922 3.7812-2.0938 4.9375-1.3867 1.1562-3.375 1.7344-5.9688 1.7344h-3.4844v7.0781h-5.25zm5.25 3.8125v5.7031h2.9219c1.0195 0 1.8047-0.25 2.3594-0.75 0.5625-0.5 0.84375-1.2031 0.84375-2.1094 0-0.91406-0.28125-1.6172-0.84375-2.1094-0.55469-0.48828-1.3398-0.73438-2.3594-0.73438z"/>
  </symbol>
  <symbol id="m" overflow="visible">
   <path d="m14.719-14.828v3.9844c-0.65625-0.45703-1.3242-0.79688-2-1.0156-0.66797-0.21875-1.3594-0.32812-2.0781-0.32812-1.3672 0-2.4336 0.40234-3.2031 1.2031-0.76172 0.79297-1.1406 1.9062-1.1406 3.3438 0 1.4297 0.37891 2.543 1.1406 3.3438 0.76953 0.79297 1.8359 1.1875 3.2031 1.1875 0.75781 0 1.4844-0.10938 2.1719-0.32812 0.6875-0.22656 1.3203-0.56641 1.9062-1.0156v4c-0.76172 0.28125-1.5391 0.48828-2.3281 0.625-0.78125 0.14453-1.5742 0.21875-2.375 0.21875-2.7617 0-4.9219-0.70703-6.4844-2.125-1.5547-1.4141-2.3281-3.3828-2.3281-5.9062 0-2.5312 0.77344-4.5039 2.3281-5.9219 1.5625-1.4141 3.7227-2.125 6.4844-2.125 0.80078 0 1.5938 0.074219 2.375 0.21875 0.78125 0.13672 1.5547 0.35156 2.3281 0.64062z"/>
  </symbol>
 </defs>
 <g>
  <path d="m460.7 188.93c0.066406 2.2812 1.9297 4.0859 4.1992 4.0859 0.039062 0 0.078124 0 0.11328-0.003906 2.3203-0.0625 4.1445-1.9922 4.0859-4.3125-0.50391-18.121-17.117-41.586-17.824-42.574-1.3438-1.8828-3.9648-2.3281-5.8555-0.97656-1.8906 1.3477-2.3242 3.9688-0.98047 5.8594 0.16016 0.22266 15.836 22.34 16.262 37.922z"/>
  <path d="m347.86 289.93c0-2.3203-1.8828-4.1992-4.1992-4.1992-2.3203 0-4.1992 1.8828-4.1992 4.1992 0 1.0977-3.9883 4.2812-11.594 4.2812s-11.594-3.1836-11.594-4.2812c0-2.3203-1.8828-4.1992-4.1992-4.1992-2.3203 0-4.1992 1.8828-4.1992 4.1992 0 7.2305 8.5977 12.684 19.992 12.684s19.992-5.4531 19.992-12.684z"/>
  <path d="m386.06 358.73c-2.1562 2.0117-8.6562 4.0508-16.914 4.0508-9.5469 0-15.93-2.625-17.238-4.3984-1.3672-1.8672-4.0039-2.2656-5.8672-0.89062-1.8711 1.375-2.2695 4.0039-0.89062 5.875 4.2422 5.7656 15.176 7.8164 23.996 7.8164 9.8047 0 18.48-2.418 22.645-6.3125 1.6953-1.582 1.7891-4.2422 0.20312-5.9375-1.5859-1.6953-4.2383-1.7852-5.9336-0.20312z"/>
  <path d="m431.3 285.73c-2.3203 0-4.1992 1.8828-4.1992 4.1992 0 1.0977-3.9883 4.2812-11.594 4.2812-7.6055 0-11.594-3.1836-11.594-4.2812 0-2.3203-1.8828-4.1992-4.1992-4.1992-2.3203 0-4.1992 1.8828-4.1992 4.1992 0 7.2305 8.5977 12.684 19.992 12.684 11.398 0 19.992-5.4531 19.992-12.684 0.003906-2.3164-1.8789-4.1992-4.1992-4.1992z"/>
  <path d="m239.3 259.32c-0.35938 1.4766-8.6914 36.297 4.8672 53.266 4.6836 5.8594 11.305 8.8633 19.613 9.0664 5.3477 21.555 14.809 41.281 27.863 57.605 9.4531 11.82 20.285 21.211 32.02 27.98v50.723c-0.98047 2.9102-9.7656 23.883-60.605 21.969-0.050782-0.003906-0.10547-0.003906-0.16016-0.003906-2.2461 0-4.1055 1.7812-4.1875 4.043-0.085938 2.3203 1.7227 4.2695 4.043 4.3516 2.2852 0.085937 4.5 0.125 6.6406 0.125 55.836 0 62.328-27.816 62.586-29.043 0.058593-0.28516 0.085937-0.57031 0.085937-0.86328v-46.965c11.891 5.4062 24.547 8.2305 37.547 8.2266 0.27344 0 0.55859 0 0.83594-0.003907 13.258-0.125 25.945-3.2148 37.68-8.7656v47.508c0 0.28906 0.027344 0.57812 0.085938 0.85938 0.25781 1.2305 6.7305 29.051 62.578 29.047 2.1367 0 4.3594-0.039063 6.6406-0.125 2.3203-0.085938 4.1289-2.0352 4.043-4.3516-0.082031-2.3203-2.2656-4.1602-4.3477-4.043-51.078 1.9141-59.688-19.215-60.598-21.953v-51.461c27.75-16.586 49.109-47.395 58.223-84.93 7.9609-0.34766 14.27-3.2852 18.629-8.9648 11.258-14.652 5.5352-42.668 3.4805-51.039 4.7148-5.4023 4.8789-10.797 4.8711-10.973 12.074-116.95-88.227-174.61-89.309-175.22-8.4062-4.5-16.828-5.0664-25.043-1.6875-13.922 5.7344-24.383 22.051-31.039 35.727-45.281 7.6289-69.945 28.613-70.699 29.293-24.477 17.715-24.664 41.129-24.031 48.535-18.18 17.98-26.605 35.848-25.051 53.133 0.55859 6.1875 2.3594 11.625 4.6914 16.324-0.94141 0.55859-1.6719 1.4648-1.9531 2.6094zm131.07 152.09c-0.25 0.003906-0.50391 0.003906-0.76172 0.003906-26.773 0-52.113-13.258-71.41-37.395-19.715-24.664-30.758-57.656-31.086-92.91-0.023437-1.8555-0.003906-3.707 0.039063-5.543 0.011718-0.5-0.10156-0.96484-0.25-1.4141 13.371-11.523 69.215-57.734 120.07-71.766 40.031 23.215 75.234 57.441 83.738 65.98 0.26172 3.5898 0.42969 7.2344 0.46875 10.852 0.67188 72.363-44.547 131.66-100.8 132.19zm116.35-103.9c-2.4258 3.1602-5.7305 4.9336-10.133 5.543 2.0469-10.875 3.0977-22.23 2.9883-33.918-0.027344-2.707-0.19922-5.418-0.34766-8.125 4.1602-0.94141 7.5547-2.2344 10.316-3.7305 2.3711 11.406 4.4258 30.793-2.8242 40.23zm-219.86-113.52c0.21094-0.12109 0.4375-0.19922 0.62891-0.35547 4.6094-3.8164 18.266-14.105 25.992-15.863 2.2656-0.51562 3.6797-2.7656 3.168-5.0273-0.51563-2.2656-2.8008-3.668-5.0273-3.168-6.7031 1.5234-15.398 7.0742-21.645 11.566 0.53906-8.6211 4.1094-23.688 20.879-35.836 0.22656-0.19922 21.984-18.652 61.324-26.586-2.6484 6.4414-4.1055 11.094-4.2852 11.68-0.68359 2.2188 0.5625 4.5664 2.7852 5.2461 2.2422 0.68359 4.5664-0.57031 5.2461-2.7852 0.13281-0.42578 13.273-42.57 34.656-51.379 5.8398-2.4141 11.691-1.9883 17.801 1.2852 0.96875 0.54297 96.512 55.469 84.973 167.3-0.015625 0.38281-0.64062 8.6914-14.426 12.391-3.5508-60.418-80.5-122.08-83.863-124.75-1.8203-1.4453-4.457-1.125-5.9023 0.68359-1.4375 1.8164-1.1328 4.4609 0.68359 5.9023 0.75781 0.60156 70.871 56.754 79.859 111.28-21.48-20.664-77.285-70.176-129.21-81.418-0.03125-0.007813-0.066406-0.015626-0.097656-0.023438-2.8594-0.61719-5.7148-1.1562-8.5469-1.5312-2.3516-0.32812-4.4141 1.3203-4.707 3.6172-0.21094 1.5742 0.52344 3.0156 1.7227 3.8945-9.7969 6.6719-26.277 18.801-39.406 33.07-1.5703 1.707-1.4609 4.3633 0.24609 5.9336 0.80469 0.74219 1.8281 1.1094 2.8438 1.1094 1.1328 0 2.2656-0.45703 3.0898-1.3555 16.289-17.699 38.754-32.473 44.566-36.164 12.031 2.7891 24.363 7.7773 36.449 14.031-51.305 17.062-103.45 60.754-115.76 71.488-4.7422-3.9922-14.656-13.984-15.969-28.578-1.3008-14.441 6.1367-29.797 21.926-45.656zm-8.1172 83.164c-0.019532 1.3477-0.042969 2.6953-0.027344 4.0469 0.10156 10.906 1.2969 21.57 3.3047 31.918-4.8633-0.50781-8.5508-2.3398-11.281-5.7617-7.9961-9.9961-6.1641-30.984-4.1211-42.027 5.6484 7.4023 11.617 11.484 12.125 11.824z"/>
  <path d="m157.46 227.67c0.21484 0.14844 21.152 15.074 21.152 32.656 0 2.3203 1.8828 4.1992 4.1992 4.1992 2.3203 0 4.1992-1.8828 4.1992-4.1992 0-17.582 20.941-32.508 21.152-32.656 1.4648-1.0352 2.1211-2.8828 1.6172-4.6055-0.49609-1.7227-2.0273-2.9414-3.8242-3.0312-10.703-0.53125-17.402-17.477-19.082-23.965-0.050781-0.19141-0.17578-0.33594-0.25-0.51562-0.10938-0.26562-0.20703-0.51953-0.36719-0.75781-0.15625-0.23438-0.34766-0.42188-0.54687-0.61719-0.17969-0.17969-0.35156-0.35547-0.56641-0.50391-0.25391-0.17188-0.53125-0.28516-0.81641-0.39844-0.16406-0.066407-0.29688-0.18359-0.47266-0.23047-0.070313-0.015625-0.13281 0.003906-0.20312-0.011719-0.27734-0.058594-0.5625-0.046875-0.85547-0.046875-0.28906 0-0.57422-0.011719-0.84766 0.046875-0.066407 0.011719-0.12891-0.007812-0.19531 0.011719-0.16797 0.042969-0.29297 0.15625-0.44922 0.21875-0.30078 0.11719-0.58984 0.23438-0.85547 0.41406-0.19922 0.13672-0.35547 0.30469-0.52344 0.46875-0.21094 0.20703-0.41406 0.40234-0.57812 0.65234-0.15234 0.23047-0.25 0.48047-0.35547 0.73828-0.074219 0.18359-0.20313 0.32812-0.25391 0.52734-1.6797 6.4844-8.3789 23.434-19.082 23.965-1.793 0.085937-3.3242 1.3086-3.8242 3.0312-0.49219 1.7266 0.16406 3.5742 1.6289 4.6094zm25.355-18.652c2.9219 6.1328 7.5234 13.27 14.215 16.953-4.4766 4.0977-10.316 10.41-14.215 18.105-3.8945-7.6953-9.7383-14.008-14.215-18.105 6.6875-3.6836 11.289-10.82 14.215-16.953z"/>
  <path d="m210.62 363.51c-0.046875 0.29297-0.082031 0.57422-0.0625 0.875 0.003906 0.09375-0.03125 0.17969-0.019531 0.27734 0.042969 0.33203 4.0156 33.598-17.668 38.227-1.8203 0.38672-3.1719 1.9297-3.3125 3.7852s0.95703 3.5859 2.6953 4.2461c0.33203 0.125 33.199 12.855 39.195 36.57 0.48047 1.9062 2.1914 3.1719 4.0703 3.1719 0.34375 0 0.6875-0.039062 1.0352-0.12891 2.2461-0.57031 3.6133-2.8516 3.0469-5.0977-5.9844-23.648 16.875-50.535 17.105-50.801 1.1992-1.3906 1.3555-3.3984 0.38672-4.9609-0.96875-1.5547-2.8477-2.3125-4.6094-1.8555-20.887 5.3594-33.766-24.996-33.895-25.305-0.03125-0.078125-0.10156-0.12891-0.13672-0.20312-0.14453-0.30469-0.33984-0.55859-0.54688-0.8125-0.13672-0.16797-0.25781-0.33984-0.41797-0.48047-0.21875-0.19531-0.46875-0.33594-0.72656-0.48047-0.22656-0.12891-0.4375-0.25781-0.68359-0.34375-0.22656-0.078125-0.46094-0.10156-0.70312-0.14062-0.30859-0.050781-0.60547-0.09375-0.92188-0.074219-0.09375 0.003907-0.17969-0.03125-0.27734-0.023437-0.19141 0.023437-0.34766 0.12891-0.53125 0.17969-0.18359 0.046876-0.36719 0.03125-0.54688 0.10547-0.089843 0.039063-0.14844 0.11328-0.23437 0.16016-0.25781 0.12891-0.47656 0.29687-0.69922 0.47266-0.21875 0.17188-0.42578 0.32812-0.59766 0.52734-0.17187 0.19531-0.29297 0.41406-0.42578 0.64062-0.14062 0.24219-0.28125 0.47266-0.37109 0.73828-0.082032 0.23438-0.10938 0.48047-0.14844 0.73047zm34.004 33.262c-4.8906 7.2305-11.441 18.859-13.656 31.707-7.9688-10.141-19.094-17.219-26.824-21.281 9.3164-6.1133 13.344-17.262 14.656-27.664 5.6914 7.7578 14.34 16.098 25.824 17.238z"/>
  <path d="m496.89 359.16c-1.7461-0.38672-3.5586 0.35547-4.5078 1.8789-0.94531 1.5273-0.81641 3.4844 0.32422 4.8711 0.16016 0.20312 16.285 20.18 11.5 37.168-0.62891 2.2344 0.66797 4.5547 2.9023 5.1836 0.37891 0.10938 0.76172 0.16016 1.1367 0.16016 1.8359 0 3.5234-1.207 4.043-3.0586 4.7695-16.926 28.973-25.613 29.219-25.699 1.6914-0.59766 2.8203-2.1992 2.8125-3.9922-0.015625-1.793-1.1641-3.3828-2.8594-3.9531-10.16-3.4141-12.008-21.543-11.867-28.242 0.003906-0.19531-0.078125-0.36719-0.10156-0.55859-0.03125-0.28906-0.058594-0.5625-0.15234-0.83984-0.085938-0.26172-0.21484-0.48438-0.34766-0.71875-0.12891-0.23438-0.25391-0.46094-0.42578-0.66406-0.19141-0.22266-0.41406-0.39453-0.64844-0.57422-0.14844-0.11328-0.24609-0.26953-0.41406-0.36719-0.0625-0.039062-0.13672-0.035156-0.20312-0.070312-0.25-0.12891-0.51953-0.19141-0.79688-0.26953-0.26953-0.074218-0.52344-0.16016-0.79687-0.17969-0.078126-0.003907-0.14063-0.046875-0.21875-0.050781h-0.09375c-0.19141 0-0.35156 0.082031-0.53516 0.10547-0.26953 0.035156-0.52344 0.070313-0.77734 0.15625-0.27344 0.09375-0.51563 0.22266-0.76172 0.36719-0.21484 0.125-0.42188 0.24219-0.61328 0.40234-0.23047 0.19531-0.41406 0.42578-0.59766 0.66797-0.10547 0.14062-0.25391 0.23047-0.34375 0.38672-3.375 5.7852-14.406 20.234-24.875 17.891zm25.277-4.3281c1.1484 6.6953 3.6445 14.812 9.0781 20.176-5.418 2.7305-12.754 7.2227-18.59 13.57-1.6641-8.4609-5.5742-16.121-8.7734-21.281 7.4414-1.7305 13.809-7.3555 18.285-12.465z"/>
  <use x="70" y="644" xlink:href="#s"/>
  <use x="90.550781" y="644" xlink:href="#e"/>
  <use x="104.359375" y="644" xlink:href="#c"/>
  <use x="123.347656" y="644" xlink:href="#a"/>
  <use x="142.242188" y="644" xlink:href="#b"/>
  <use x="155.628906" y="644" xlink:href="#c"/>
  <use x="174.617188" y="644" xlink:href="#l"/>
  <use x="204.410156" y="644" xlink:href="#k"/>
  <use x="224.453125" y="644" xlink:href="#j"/>
  <use x="252.453125" y="644" xlink:href="#g"/>
  <use x="262.046875" y="644" xlink:href="#d"/>
  <use x="281.285156" y="644" xlink:href="#f"/>
  <use x="301.21875" y="644" xlink:href="#a"/>
  <use x="320.113281" y="644" xlink:href="#b"/>
  <use x="333.5" y="644" xlink:href="#a"/>
  <use x="362.140625" y="644" xlink:href="#i"/>
  <use x="382.074219" y="644" xlink:href="#a"/>
  <use x="400.96875" y="644" xlink:href="#f"/>
  <use x="420.902344" y="644" xlink:href="#h"/>
  <use x="440.945312" y="644" xlink:href="#h"/>
  <use x="460.988281" y="644" xlink:href="#a"/>
  <use x="70" y="672" xlink:href="#r"/>
  <use x="82.183594" y="672" xlink:href="#e"/>
  <use x="95.992188" y="672" xlink:href="#d"/>
  <use x="115.226562" y="672" xlink:href="#q"/>
  <use x="154.152344" y="672" xlink:href="#b"/>
  <use x="167.535156" y="672" xlink:href="#i"/>
  <use x="187.46875" y="672" xlink:href="#c"/>
  <use x="216.207031" y="672" xlink:href="#p"/>
  <use x="239.640625" y="672" xlink:href="#d"/>
  <use x="258.878906" y="672" xlink:href="#o"/>
  <use x="278.8125" y="672" xlink:href="#f"/>
  <use x="308.492188" y="672" xlink:href="#n"/>
  <use x="329.015625" y="672" xlink:href="#e"/>
  <use x="342.820312" y="672" xlink:href="#d"/>
  <use x="362.058594" y="672" xlink:href="#g"/>
  <use x="371.65625" y="672" xlink:href="#c"/>
  <use x="390.648438" y="672" xlink:href="#m"/>
  <use x="407.242188" y="672" xlink:href="#b"/>
 </g>
</svg>
