<?xml version="1.0" encoding="UTF-8"?>
<svg width="700pt" height="700pt" version="1.1" viewBox="0 0 700 700" xmlns="http://www.w3.org/2000/svg">
 <g>
  <path d="m350 431.65c111.15 0 201.6-85.41 201.6-190.4 0-6.1836-5.0195-11.199-11.199-11.199h-87.742l48.945-51.363c10.57-10.598 16.395-24.664 16.395-39.605 0-14.965-5.8242-29.031-16.398-39.602-21.145-21.168-57.883-21.371-79.387 0.20312l-124.21 130.34h-138.41c-6.1836 0-11.199 5.0195-11.199 11.199-0.003906 104.99 90.449 190.42 201.6 190.42zm88.234-316.33c12.68-12.68 34.809-12.68 47.531 0 6.3398 6.3594 9.8359 14.781 9.8359 23.766 0 8.9609-3.4961 17.406-10.012 23.945l-63.863 67h-92.781zm90.562 137.13c-6.1602 87.426-84 156.8-178.8 156.8s-172.64-69.371-178.8-156.8z"/>
  <path d="m484.4 454.05h-268.8c-6.1836 0-11.199 5.0195-11.199 11.199 0 6.1836 5.0195 11.199 11.199 11.199h268.8c6.1836 0 11.199-5.0195 11.199-11.199 0.003906-6.1797-5.0156-11.199-11.199-11.199z"/>
  <path d="m338.8 364.45c6.1836 0 11.199-5.0195 11.199-11.199 0-6.1836-5.0195-11.199-11.199-11.199-33.512 0-78.398-27.688-78.398-56 0-6.1836-5.0195-11.199-11.199-11.199-6.1836 0-11.199 5.0195-11.199 11.199-0.003906 45.469 60.207 78.398 100.8 78.398z"/>
 </g>
</svg>
